name C:\Users\r0593348\3dpredictsim\Results\Batchsim_tmt_linear_v2\Pog_s1_tmt_aCst_d05_k500_ig24_act.mot
datacolumns 128
datarows 4
range 1.24714584 1.28456022
endheader
time	pelvis_tilt	pelvis_list	pelvis_rotation	pelvis_tx	pelvis_ty	pelvis_tz	hip_flexion_l	hip_adduction_l	hip_rotation_l	hip_flexion_r	hip_adduction_r	hip_rotation_r	knee_angle_l	knee_angle_r	ankle_angle_l	ankle_angle_r	subtalar_angle_l	subtalar_angle_r	tmt_angle_l	tmt_angle_r	mtp_angle_l	mtp_angle_r	lumbar_extension	lumbar_bending	lumbar_rotation	arm_flex_l	arm_add_l	arm_rot_l	arm_flex_r	arm_add_r	arm_rot_r	elbow_flex_l	elbow_flex_r	pro_sup_l	pro_sup_r	glut_med1_l/activation	glut_med2_l/activation	glut_med3_l/activation	glut_min1_l/activation	glut_min2_l/activation	glut_min3_l/activation	semimem_l/activation	semiten_l/activation	bifemlh_l/activation	bifemsh_l/activation	sar_l/activation	add_long_l/activation	add_brev_l/activation	add_mag1_l/activation	add_mag2_l/activation	add_mag3_l/activation	tfl_l/activation	pect_l/activation	grac_l/activation	glut_max1_l/activation	glut_max2_l/activation	glut_max3_l/activation	iliacus_l/activation	psoas_l/activation	quad_fem_l/activation	gem_l/activation	peri_l/activation	rect_fem_l/activation	vas_med_l/activation	vas_int_l/activation	vas_lat_l/activation	med_gas_l/activation	lat_gas_l/activation	soleus_l/activation	tib_post_l/activation	flex_dig_l/activation	flex_hal_l/activation	tib_ant_l/activation	per_brev_l/activation	per_long_l/activation	per_tert_l/activation	ext_dig_l/activation	ext_hal_l/activation	ercspn_l/activation	intobl_l/activation	extobl_l/activation	glut_med1_r/activation	glut_med2_r/activation	glut_med3_r/activation	glut_min1_r/activation	glut_min2_r/activation	glut_min3_r/activation	semimem_r/activation	semiten_r/activation	bifemlh_r/activation	bifemsh_r/activation	sar_r/activation	add_long_r/activation	add_brev_r/activation	add_mag1_r/activation	add_mag2_r/activation	add_mag3_r/activation	tfl_r/activation	pect_r/activation	grac_r/activation	glut_max1_r/activation	glut_max2_r/activation	glut_max3_r/activation	iliacus_r/activation	psoas_r/activation	quad_fem_r/activation	gem_r/activation	peri_r/activation	rect_fem_r/activation	vas_med_r/activation	vas_int_r/activation	vas_lat_r/activation	med_gas_r/activation	lat_gas_r/activation	soleus_r/activation	tib_post_r/activation	flex_dig_r/activation	flex_hal_r/activation	tib_ant_r/activation	per_brev_r/activation	per_long_r/activation	per_tert_r/activation	ext_dig_r/activation	ext_hal_r/activation	ercspn_r/activation	intobl_r/activation	extobl_r/activation	
          1.24714584	          3.00647111	          2.23036995	          9.56010952	          1.55893230	          0.86744579	         -0.00200976	        -23.65478108	         -0.39392654	          0.92977856	         28.80331696	         -3.12367165	         -3.33591632	        -14.67667730	        -15.35256933	        -20.66911332	        -32.88347700	          1.59547306	         -3.15869858	          1.96693233	         -0.08463153	         40.00715690	         -0.27726227	         -1.76801635	         -6.18691605	         -2.45302176	        -12.68843252	        -14.00774702	         14.34289145	         -0.31302365	        -13.53531032	         13.44216360	         13.58981116	         17.17790785	         86.51662706	         86.51662706	          0.11269095	          0.05000016	          0.05000012	          0.12845518	          0.06631182	          0.05000064	          0.07352941	          0.06039300	          0.06039229	          0.06039341	          0.07294486	          0.32973745	          0.21745740	          0.23295470	          0.05000398	          0.05000119	          0.10702356	          0.14975055	          0.08804982	          0.05000179	          0.05000113	          0.05000120	          0.33086010	          0.51979374	          0.05000025	          0.05000339	          0.05001352	          0.26304981	          0.05000712	          0.05530355	          0.05000065	          0.05000006	          0.08881498	          0.08709723	          0.15525654	          0.13155076	          0.14779507	          0.06403964	          0.20152169	          0.14646927	          0.56162496	          0.44998648	          0.18733557	          0.05481906	          0.05000007	          0.08988712	          0.06726347	          0.08302947	          0.06039293	          0.05000042	          0.05000064	          0.05000124	          0.10648534	          0.08810875	          0.09199546	          0.11995327	          0.06074936	          0.05885746	          0.07297228	          0.17032468	          0.20476373	          0.16448188	          0.05000035	          0.05000087	          0.12860233	          0.10368745	          0.15346865	          0.20555835	          0.10642222	          0.10642180	          0.12706028	          0.05000076	          0.05601103	          0.05000005	          0.05000034	          0.05000030	          0.05000014	          0.06039293	          0.06039299	          0.06274283	          0.11396091	          0.08689782	          0.10778830	          0.05000002	          0.06953854	          0.10399719	          0.12507090	          0.05000016	          0.05000030	          0.05000001	          0.21000964	          0.11977917	
          1.25961730	          3.02917624	          2.37359310	          9.45691838	          1.58053032	          0.86700211	         -0.00164921	        -23.33054378	         -0.54908839	          0.59883226	         28.53255575	         -3.01580326	         -3.15823901	        -16.83471060	        -16.86312583	        -23.83544448	        -30.77704913	          1.46603108	         -2.64805722	          1.49463012	          0.02834609	         40.05874530	          0.47769376	         -1.45925789	         -5.92143481	         -2.54619107	        -12.47538705	        -14.09876640	         14.37654951	         -2.45101312	        -13.48502925	         13.74937505	         13.25809615	         17.75847755	         86.51662706	         86.51662706	          0.09329835	          0.05000029	          0.05000011	          0.10634969	          0.05490076	          0.05000040	          0.11414662	          0.05000026	          0.05000040	          0.05000049	          0.06039234	          0.27299381	          0.24902041	          0.19286639	          0.05120147	          0.05000288	          0.08860619	          0.12398102	          0.07289777	          0.05000740	          0.05000572	          0.05000644	          0.27392312	          0.43034360	          0.05000144	          0.05000034	          0.05000010	          0.21778214	          0.05002189	          0.05000646	          0.05000133	          0.05000217	          0.07353123	          0.17152106	          0.12853878	          0.10891255	          0.12236136	          0.15731021	          0.26709167	          0.16064448	          0.71650341	          0.59309991	          0.15509744	          0.07198849	          0.05000001	          0.08203499	          0.10856046	          0.20914562	          0.05000014	          0.09556637	          0.06039328	          0.05000046	          0.08816051	          0.07294632	          0.07616417	          0.09931079	          0.05029522	          0.07294616	          0.07298208	          0.14101397	          0.16952651	          0.15258610	          0.05000017	          0.07294632	          0.10647155	          0.08584434	          0.20753197	          0.20561425	          0.08810828	          0.08810793	          0.10519483	          0.24180762	          0.34780805	          0.05000003	          0.05000014	          0.05000017	          0.21962415	          0.05000005	          0.05000010	          0.05194556	          0.15752524	          0.07194383	          0.08923930	          0.07294601	          0.05757183	          0.08610055	          0.21518155	          0.08346872	          0.08096868	          0.05000010	          0.17386955	          0.09916663	
          1.27208876	          3.05585501	          2.49679127	          9.30687479	          1.60193860	          0.86608586	         -0.00127168	        -22.75977183	         -0.68625048	          0.29932141	         28.08775080	         -2.86847591	         -2.97199936	        -19.48014000	        -18.94823141	        -26.25436546	        -27.83627834	          1.29237212	         -2.15626909	          1.16085748	          0.42392913	         38.02435618	          2.53380766	         -1.17985986	         -5.61051185	         -2.62462305	        -12.21827385	        -14.17606723	         14.36522971	         -4.54861437	        -13.46635517	         14.16577670	         12.92471502	         18.29081977	         86.51662706	         86.51662706	          0.07724290	          0.05000109	          0.05573473	          0.08804828	          0.05000073	          0.05000128	          0.17317063	          0.05000195	          0.06039361	          0.05000013	          0.05000153	          0.22601559	          0.40709203	          0.35545040	          0.15049940	          0.13185795	          0.07335819	          0.10264595	          0.06035354	          0.05001016	          0.05001190	          0.05013218	          0.22678429	          0.35628671	          0.06039142	          0.06039213	          0.05000251	          0.18030448	          0.05000034	          0.06039800	          0.08551133	          0.08820662	          0.07884748	          0.14200449	          0.10641882	          0.09017013	          0.10130449	          0.18946189	          0.23222099	          0.13362843	          0.59320258	          0.72636272	          0.43364202	          0.07635459	          0.05000011	          0.08810837	          0.19059597	          0.26771152	          0.33707661	          0.07912069	          0.05000082	          0.33066361	          0.07298917	          0.06039316	          0.06305725	          0.08222062	          0.08810691	          0.06039306	          0.06042278	          0.11674722	          0.14035310	          0.12632794	          0.07296373	          0.06039346	          0.08814913	          0.11436673	          0.17181851	          0.17023057	          0.07294605	          0.07294599	          0.21267854	          0.20019559	          0.28795483	          0.08322302	          0.25583811	          0.24039512	          0.31263093	          0.12854338	          0.18589676	          0.10642236	          0.34368130	          0.48518314	          0.42800879	          0.06039289	          0.12260419	          0.12854450	          0.17815143	          0.06910477	          0.06703497	          0.05000001	          0.14394872	          0.08210126	
          1.28456022	          3.07960844	          2.58957075	          9.11270882	          1.62285921	          0.86517071	         -0.00085883	        -21.94253862	         -0.81232145	          0.04647183	         27.29659953	         -2.64491945	         -2.77152091	        -22.46856911	        -20.76478166	        -28.10651134	        -23.89419296	          1.07840945	         -1.59773949	          0.79891149	          0.86925781	         34.09250372	          4.60041371	         -0.94215702	         -5.25304795	         -2.68669770	        -11.84936233	        -14.21586349	         14.29305322	         -6.54425009	        -13.45659631	         14.71792879	         12.53322627	         18.71548764	         86.51662706	         86.51662706	          0.06395064	          0.05000007	          0.05000004	          0.07289635	          0.05000048	          0.05000033	          0.23046768	          0.05000028	          0.05000235	          0.05000011	          0.05000094	          0.18712112	          0.37487222	          0.29428198	          0.12460479	          0.10916733	          0.06073424	          0.08498269	          0.05000079	          0.05000130	          0.05000106	          0.05000185	          0.18775748	          0.29497412	          0.05000011	          0.05000047	          0.05000055	          0.14927628	          0.07294588	          0.05000494	          0.07294581	          0.08122019	          0.06527974	          0.12379707	          0.08810544	          0.07465307	          0.08387125	          0.20807177	          0.20955673	          0.11806744	          0.59272797	          0.85015785	          0.35901752	          0.09067734	          0.05000001	          0.07294600	          0.22343198	          0.36469725	          0.46477394	          0.07171463	          0.19889453	          0.27376252	          0.06042863	          0.05000029	          0.05220589	          0.06807153	          0.07294565	          0.05000021	          0.05002479	          0.09665649	          0.11620014	          0.12116260	          0.06040762	          0.05000104	          0.07297983	          0.22400230	          0.20103192	          0.14093614	          0.06039296	          0.06039290	          0.22653505	          0.16574476	          0.29938309	          0.06890137	          0.21181178	          0.19902727	          0.34495583	          0.10642263	          0.15390620	          0.08810838	          0.34083452	          0.40169226	          0.35435377	          0.05000001	          0.10150551	          0.10642355	          0.14749375	          0.05721269	          0.05549910	          0.05000002	          0.11917689	          0.06797264	
